PathFileType	4	(X/Y/Z)	D:\Share\Shared_Data\Ergonomics\Sit To Stand Pertubation\S0\Free STS.trc
DataRate	CameraRate	NumFrames	NumMarkers	Units	OrigDataRate	OrigDataStartFrame	OrigNumFrames	
100	100	13	18	m	100	2876	211
Frame#	Time	R_Toe			R_ASIS			R_Pelvis			V_Sacral			L_Pelvis			L_ASIS			Clavical			R_Acromium			L_Acromium			Sternum			Torso			R_Thigh_Med			R_Thigh_Lat			R_Thigh			R_Shank_Med			R_Shank_Lat			R_Shank			R_Heel			
		X1	Y1	Z1	X2	Y2	Z2	X3	Y3	Z3	X4	Y4	Z4	X5	Y5	Z5	X6	Y6	Z6	X7	Y7	Z7	X8	Y8	Z8	X9	Y9	Z9	X10	Y10	Z10	X11	Y11	Z11	X12	Y12	Z12	X13	Y13	Z13	X14	Y14	Z14	X15	Y15	Z15	X16	Y16	Z16	X17	Y17	Z17	X18	Y18	Z18	

2876	15.18	0.37818964	0.045157036	0.14095845	0.28052441	0.97435767	0.15728304	0.16773215	1.0180173	0.20506148	0.04395229	1.0403505	-0.022856976	0.17925504	1.0026209	-0.20654839	0.28835648	0.95741046	-0.15629721	0.41574689	1.3806486	-0.0098206806	0.35109601	1.4554438	0.13137537	0.33804422	1.4670155	-0.1525239	0.42689633	1.2835823	-0.028013674	0.40932867	1.337666	-0.13240628	0.31725153	0.48826535	0.056742992	0.31204117	0.51233289	0.1859646	0.36423944	0.65542114	0.11868729	0.25260135	0.09953968	0.10308386	0.19616032	0.089934731	0.19282521	0.25331053	0.31437314	0.20716801	0.15452953	0.045499939	0.15054456
2877	15.19	0.37822549	0.045150536	0.1411069	0.28393924	0.97688141	0.1571797	0.17060934	1.0194246	0.20485326	0.047104614	1.0410808	-0.023193939	0.18266431	1.0041556	-0.20673293	0.29211688	0.95996924	-0.15646324	0.41436194	1.3852825	-0.0095841208	0.34864853	1.4593694	0.13170299	0.33580893	1.4708746	-0.15257561	0.42678085	1.2883324	-0.027843798	0.40847714	1.3421881	-0.13231804	0.31656631	0.48846786	0.056358871	0.31117947	0.51269189	0.18545222	0.36484973	0.65514551	0.11833784	0.25256375	0.099574226	0.10306602	0.19604623	0.08998378	0.19271333	0.25259402	0.31462796	0.20688144	0.15457355	0.045546959	0.15047881
2878	15.2	0.37826163	0.045146019	0.14124557	0.28731421	0.97929657	0.1571051	0.17343748	1.0207429	0.20465967	0.050212425	1.0417228	-0.023518633	0.18603047	1.0055947	-0.20690584	0.29582828	0.96242334	-0.1566089	0.41296484	1.3897008	-0.0093488007	0.34621945	1.4630757	0.13202043	0.33359082	1.4745258	-0.15262259	0.42662457	1.2928831	-0.027671696	0.40759845	1.3464999	-0.132224	0.31584491	0.48866034	0.055945652	0.31031787	0.5130495	0.18491772	0.36542929	0.65486438	0.11795806	0.25252608	0.099608147	0.10304935	0.19593887	0.090033356	0.1926008	0.25187349	0.31488297	0.20658511	0.15461513	0.045590157	0.15041557
2879	15.21	0.37829785	0.045143211	0.14137256	0.29064368	0.98159857	0.15706093	0.17621935	1.0219704	0.20447861	0.053270893	1.0422791	-0.023827946	0.1893485	1.0069409	-0.20706631	0.2994834	0.96476965	-0.15673553	0.41155743	1.3939039	-0.0091161318	0.34381247	1.4665652	0.13232709	0.33139276	1.4779696	-0.15266403	0.42642899	1.2972341	-0.027498665	0.40669934	1.3506047	-0.13212512	0.31509491	0.48884464	0.055505634	0.30946109	0.51340222	0.18436241	0.36598761	0.65457922	0.11754935	0.25248927	0.099640778	0.10303441	0.19583876	0.090082985	0.19249001	0.25115448	0.31513461	0.20627979	0.15465425	0.045628918	0.1503567
2880	15.22	0.37833401	0.045141804	0.14148621	0.29392334	0.9837829	0.15704678	0.17895908	1.0231043	0.20430785	0.056276852	1.042752	-0.024119318	0.19261383	1.0081961	-0.20721313	0.3030777	0.96700641	-0.15684641	0.41014288	1.3978938	-0.0088876429	0.34142972	1.4698416	0.13262288	0.32921613	1.4812083	-0.1527003	0.42619498	1.3013867	-0.027326094	0.40578601	1.3545068	-0.13202386	0.31432428	0.48902219	0.055041462	0.30861404	0.51374634	0.18378745	0.36652881	0.65428912	0.11711218	0.25245332	0.099671249	0.10302087	0.19574571	0.090131706	0.19238297	0.25044247	0.31537872	0.20596637	0.15469069	0.04566238	0.15030362
2881	15.23	0.3783696	0.045141617	0.14158508	0.29715213	0.98584741	0.15706024	0.18166127	1.024141	0.20414484	0.059227707	1.0431442	-0.024390717	0.19582263	1.0093632	-0.20734444	0.30660901	0.96913416	-0.15694736	0.40872546	1.4016724	-0.0086646547	0.33907251	1.4729106	0.13290825	0.32706122	1.4842449	-0.15273267	0.42592419	1.3053414	-0.027155376	0.40486346	1.3582107	-0.1319238	0.31353937	0.48919336	0.054556454	0.3077822	0.51407806	0.18319411	0.36705347	0.65399084	0.11664643	0.25241774	0.099698868	0.10300743	0.19565932	0.090178307	0.19228076	0.24974171	0.31561182	0.20564613	0.15472411	0.045689705	0.15025691
2882	15.24	0.3784043	0.045142529	0.14166817	0.30033301	0.98779224	0.15709734	0.18432945	1.0250769	0.20398764	0.062120647	1.043459	-0.024640736	0.19897183	1.0104439	-0.20745738	0.31007538	0.97115601	-0.15704622	0.40730984	1.4052433	-0.0084480991	0.33674222	1.4757791	0.13318417	0.32492847	1.4870839	-0.15276248	0.42562039	1.3091005	-0.026987535	0.4039357	1.36172	-0.13182814	0.31274359	0.48935724	0.05405442	0.30697116	0.51439484	0.1825842	0.36756161	0.65368024	0.11615134	0.25238156	0.09972319	0.1029921	0.19557927	0.090221779	0.1921834	0.24905522	0.31583224	0.20532056	0.15475429	0.045710495	0.15021646
2883	15.25	0.37843802	0.045144104	0.14173511	0.30346997	0.98962012	0.15715462	0.18696468	1.0259094	0.20383636	0.064952431	1.0436995	-0.024868395	0.20205931	1.0114404	-0.20754814	0.31347662	0.97307843	-0.15715111	0.40590131	1.408611	-0.00823839	0.33444147	1.4784548	0.1334519	0.3228194	1.4897306	-0.15279054	0.42528882	1.3126653	-0.026822767	0.40300577	1.3650381	-0.13173848	0.3119379	0.4895126	0.053539536	0.30618607	0.5146947	0.18196043	0.36805417	0.65335443	0.1156254	0.25234425	0.09974398	0.10297282	0.19550508	0.090261688	0.19208994	0.24838551	0.31604147	0.20499121	0.15478125	0.045724968	0.1501813
2884	15.26	0.37847107	0.04514558	0.14178639	0.30656528	0.9913371	0.15723055	0.189565	1.0266385	0.2036936	0.067719582	1.043869	-0.02507287	0.20508266	1.0123541	-0.20761336	0.31681549	0.97491095	-0.1572697	0.40450656	1.4117805	-0.0080351458	0.33217444	1.4809471	0.13371292	0.32073718	1.4921896	-0.15281651	0.42493481	1.3160381	-0.026660334	0.40207608	1.368167	-0.1316541	0.31112225	0.48965872	0.053016682	0.30543042	0.51497687	0.18132623	0.36853378	0.65301282	0.11506692	0.25230554	0.099761368	0.10294812	0.19543596	0.090297981	0.19199884	0.2477352	0.31624368	0.20465956	0.15480548	0.045733871	0.15015002
2885	15.27	0.37850378	0.045146111	0.1418237	0.30962122	0.99295325	0.15732545	0.19212575	1.0272664	0.20356346	0.070418533	1.0439697	-0.025253506	0.20803668	1.0131863	-0.20765218	0.3200932	0.976664	-0.15740889	0.40313391	1.4147565	-0.0078371129	0.32994711	1.4832653	0.13396877	0.31868674	1.4944652	-0.15283884	0.42456314	1.3192209	-0.026498796	0.4011478	1.3711084	-0.1315724	0.31029657	0.48979593	0.052491421	0.30470471	0.51524139	0.18068542	0.36900433	0.65265814	0.11447549	0.25226468	0.09977562	0.10291726	0.19537079	0.090330605	0.1919082	0.2471048	0.31644376	0.20432698	0.15482755	0.045738255	0.15012105
2886	15.28	0.37853659	0.04514513	0.14184969	0.31264081	0.9944798	0.15743974	0.1946409	1.0277983	0.20344955	0.073046204	1.0440035	-0.025409929	0.21091342	1.0139379	-0.20766664	0.32330472	0.97834448	-0.15757364	0.4017919	1.417543	-0.007642561	0.32776617	1.4854178	0.13422113	0.31667349	1.4965612	-0.15285506	0.42417816	1.3222155	-0.026336477	0.40022037	1.3738633	-0.13148987	0.30946072	0.48992618	0.051969891	0.30400555	0.51548999	0.18004234	0.36946814	0.65229584	0.1138535	0.25222054	0.099787102	0.10288049	0.19530809	0.090359161	0.1918163	0.24648965	0.31664331	0.20399503	0.15484784	0.045738907	0.15009315
2887	15.29	0.37856912	0.045142525	0.14186763	0.31562555	0.99592462	0.15757124	0.19710423	1.0282415	0.20335332	0.075600594	1.0439718	-0.025542341	0.21370523	1.0146103	-0.20766054	0.32644141	0.97995581	-0.15776552	0.40048752	1.4201442	-0.0074499621	0.32563855	1.4874116	0.13447157	0.31470242	1.4984808	-0.15286237	0.42378394	1.3250238	-0.026172119	0.39929254	1.3764326	-0.13140337	0.30861359	0.49005307	0.051458515	0.30332407	0.51572662	0.17940213	0.36992047	0.65193213	0.1132074	0.25217137	0.099796494	0.10283915	0.19524553	0.09038279	0.19172229	0.24587851	0.31683899	0.20366556	0.1548663	0.045735882	0.15006578
2888	15.3	0.37860016	0.045138611	0.14188126	0.31857095	0.99728772	0.15771373	0.1995101	1.0286056	0.20327359	0.078080734	1.0438767	-0.025652126	0.21640688	1.0152048	-0.20763815	0.32949536	0.98149658	-0.15798201	0.39922534	1.4225648	-0.0072586656	0.3235708	1.4892517	0.13472125	0.31277774	1.5002281	-0.15285844	0.4233844	1.3276486	-0.026005503	0.39836371	1.3788193	-0.13131133	0.30775092	0.49018069	0.050963406	0.30264581	0.51595685	0.17877151	0.37034827	0.65157294	0.11254801	0.2521149	0.099805176	0.10279581	0.19517967	0.090400406	0.19162666	0.2452547	0.31702432	0.20334053	0.15488208	0.045728405	0.15003917
